<svg width="24" height="24" viewBox="0 0 24 24"  fill="currentColor" xmlns="http://www.w3.org/2000/svg">
<path d="M23.2473 16.3579C22.7737 16.6556 22.4185 16.8812 22.0633 17.0887C19.0306 18.8752 16.0162 20.6707 12.9653 22.421C12.7922 22.5293 12.5919 22.6015 12.3915 22.6377C12.182 22.6647 11.9726 22.6557 11.7722 22.6016C8.10202 20.5896 4.46826 18.5234 0.652344 16.376C1.72699 15.7535 2.79253 15.149 3.83986 14.5535C4.03111 14.8061 4.23147 15.0497 4.45004 15.2843C4.79611 15.6452 5.26058 15.8888 5.75237 15.961C5.86165 15.979 5.98005 15.9881 6.08933 15.9881C6.48094 15.9881 6.85434 15.8888 7.1913 15.6994L7.63765 15.4468C7.75604 15.519 7.87434 15.5912 8.00193 15.6543V16.1505C8.00193 16.6468 8.17497 17.143 8.49372 17.531C8.80337 17.928 9.24962 18.1987 9.75051 18.3069C10.4882 18.4693 11.2441 18.5505 12 18.5505C12.7559 18.5505 13.5209 18.4693 14.2586 18.3069C14.7504 18.1987 15.1966 17.928 15.5154 17.531C15.825 17.143 16.0072 16.6468 16.0072 16.1505V15.6543C16.1255 15.5912 16.2438 15.519 16.3623 15.4468L16.7995 15.6994C17.1273 15.8889 17.5189 15.9972 17.9106 15.9972C18.0289 15.9972 18.1382 15.9881 18.2566 15.9701C18.7575 15.8889 19.222 15.6363 19.5681 15.2663C19.7684 15.0498 19.9688 14.8152 20.1418 14.5806C21.1709 15.1671 22.1999 15.7624 23.2473 16.3579Z" />
<path d="M0 17.9732C2.94581 19.6642 5.68134 21.4365 8.59746 22.8404C10.77 23.8866 11.7036 25.1869 11.396 27.6252C11.2469 29.7028 11.222 31.7875 11.3211 33.8681C11.3211 33.9293 11.2606 33.9858 11.1893 34.1281C10.9363 34.0105 10.6713 33.9022 10.4303 33.7598C7.34194 31.9394 4.2536 30.1 1.15097 28.2984C0.890501 28.1701 0.67466 27.9678 0.530949 27.7173C0.387238 27.4667 0.322394 27.1793 0.344434 26.8921C0.276767 23.9948 0.129413 21.0987 0.00118393 17.9708L0 17.9732Z" />
<path d="M13.1408 34.2857C13.1408 31.006 13.129 27.9993 13.161 24.989C13.1746 24.8345 13.2214 24.6846 13.2985 24.5497C13.3755 24.4147 13.4809 24.2976 13.6076 24.2065C17.0654 22.1424 20.5421 20.1101 23.9797 18.0872V24.7078C23.9564 24.8545 23.9438 25.0029 23.9418 25.1515C24.2589 27.2391 23.2563 28.3935 21.42 29.3467C18.6499 30.7847 16.0427 32.524 13.142 34.2774L13.1408 34.2857Z" />
<path d="M20.0596 10.5925C20.0323 10.5022 19.9685 10.4301 19.8866 10.385H19.8776L18.4295 9.55488C18.5752 8.76983 18.5752 7.96691 18.4295 7.18195L19.8776 6.35188C19.9595 6.30676 20.0233 6.23458 20.0597 6.15338C20.0961 6.06316 20.0961 5.97293 20.0688 5.8827C19.6954 4.69173 19.0579 3.6 18.2018 2.68872C18.1381 2.61654 18.0561 2.57143 17.9651 2.5624C17.9468 2.55338 17.9195 2.55338 17.9013 2.55338C17.8284 2.55338 17.7647 2.57143 17.7009 2.60752L16.2438 3.43759C15.6336 2.92331 14.9324 2.51729 14.1765 2.25564V0.595488C14.1765 0.505263 14.1491 0.415037 14.0854 0.342857C14.0307 0.270677 13.9488 0.225564 13.8577 0.198496C13.2475 0.0631579 12.6191 0 11.9907 0C11.3714 0 10.7431 0.0631579 10.1329 0.198496C10.0418 0.225564 9.95984 0.270677 9.90519 0.342857C9.84144 0.415037 9.81412 0.505263 9.81412 0.595488V2.25564C9.05822 2.52631 8.35697 2.92331 7.73768 3.44661L6.28964 2.61654C6.235 2.58045 6.16214 2.5624 6.08928 2.5624H6.02553C5.93446 2.58045 5.85249 2.62547 5.78874 2.68872C4.93267 3.60902 4.29516 4.69173 3.92177 5.8827C3.89445 5.97293 3.90356 6.07218 3.93088 6.15338C3.96731 6.24361 4.03106 6.31579 4.11302 6.3609L5.57017 7.19097C5.41535 7.97603 5.41535 8.77894 5.57017 9.55497L4.11302 10.3941C4.03106 10.4392 3.96731 10.5114 3.93088 10.5926C3.90356 10.6828 3.89445 10.773 3.92177 10.8632C4.24963 11.8828 4.75963 12.8211 5.43356 13.6422C5.54285 13.7865 5.66124 13.9219 5.78874 14.0572C5.85249 14.1204 5.93446 14.1655 6.02553 14.1835H6.08928C6.16214 14.1835 6.235 14.1655 6.28964 14.1294L7.74679 13.2993C8.35697 13.8226 9.05822 14.2287 9.82323 14.4903V16.1505C9.82323 16.2407 9.85055 16.3309 9.90519 16.4031C9.96894 16.4753 10.0509 16.5294 10.142 16.5474C10.7522 16.6828 11.3806 16.7459 11.9998 16.7459C12.6282 16.7459 13.2475 16.6828 13.8577 16.5474C13.9488 16.5294 14.0307 16.4753 14.0945 16.4031C14.1491 16.3309 14.1856 16.2407 14.1856 16.1505V14.4903C14.9415 14.2196 15.6427 13.8226 16.2529 13.2993L17.7101 14.1384C17.7738 14.1745 17.8376 14.1926 17.9104 14.1926C17.9286 14.1926 17.9559 14.1835 17.9742 14.1835C18.0652 14.1746 18.1472 14.1294 18.2109 14.0572C18.3293 13.9309 18.4386 13.8046 18.5479 13.6693C19.2401 12.8482 19.7592 11.8918 20.0779 10.8632C20.1052 10.773 20.096 10.6737 20.0596 10.5925ZM11.9906 11.0707C11.5171 11.0707 11.0435 10.9534 10.6337 10.7098C10.579 10.6827 10.5244 10.6556 10.4789 10.6195C10.0326 10.3218 9.68653 9.89774 9.47706 9.4015C9.2676 8.91428 9.21295 8.3639 9.32224 7.8406C9.42242 7.31729 9.68653 6.83909 10.069 6.46015C10.4515 6.0812 10.9342 5.82857 11.4624 5.72039C11.6355 5.6843 11.8176 5.66625 11.9906 5.66625C12.3549 5.66625 12.7101 5.73843 13.038 5.87377C13.5389 6.08129 13.9669 6.42415 14.2583 6.86625C14.5589 7.31738 14.7228 7.84069 14.7228 8.37302C14.7228 9.0858 14.4314 9.77151 13.9214 10.2768C13.7483 10.4482 13.548 10.5926 13.3385 10.7099C12.9379 10.9444 12.4733 11.0707 11.9906 11.0707Z" />
</svg>
